<svg width="198" height="34" viewBox="0 0 198 34" fill="none" xmlns="http://www.w3.org/2000/svg">
<path d="M7.4375 34H0.335938V4.89062L5.46875 0.109375H20V25.3984H7.4375V34ZM12.8984 18.9062V6.55469H7.4375V18.9062H12.8984ZM30.1484 34H23.0234V5.47656L28.4844 0.109375H43.2969V34H36.1953V22.8672H30.1484V34ZM36.1953 16.4219V6.55469H30.1484V16.4219H36.1953ZM53.0938 34H45.9922V4.89062L51.125 0.109375H65.6562V25.3984H53.0938V34ZM58.5547 18.9062V6.55469H53.0938V18.9062H58.5547ZM68.6797 0.109375H85.1328V6.55469H75.7109V13.0938H84.6641V19.4219H75.8047V27.5781H85.3672V34H68.6797V0.109375ZM101.188 34L96.9688 21.7422H95.0938V34H87.9922V4.89062L93.1484 0.109375H107.656V21.6484H103.812L108.312 34H101.188ZM100.555 15.3906V6.55469H95.0938V15.3906H100.555Z" fill="black"/>
<path d="M110.961 23.4531H118.062V27.5781H122V10.0938H129.102V29.3359L124.109 34H110.961V23.4531ZM129.102 0.109375V8.21875H122V0.109375H129.102ZM132.148 0.109375H152.609V34H132.148V0.109375ZM139.273 27.5781H145.508V6.55469H139.273V27.5781ZM176.305 19.8906V34H160.414L155.727 29.3125V0.109375H170.258L175.062 4.58594V13.9141L171.734 16.5859L176.305 19.8906ZM169.18 27.5781V19.8906H162.828V27.5781H169.18ZM168.031 13.5625V6.55469H162.828V13.5625H168.031ZM197.938 34H179.305V23.4531H186.406V27.5781H190.812V22.1875L179.539 13.6797V0.109375H197.727V10.1875H191.281V6.57812H186.641V11.0078L197.938 19.4922V34Z" fill="#A10F00"/>
</svg>
